<svg width="23" height="15" viewBox="0 0 23 15" fill="none" xmlns="http://www.w3.org/2000/svg">
<path fill-rule="evenodd" clip-rule="evenodd" d="M22.6275 7.67546C22.6275 7.88294 22.5451 8.08191 22.3984 8.22862C22.2517 8.37533 22.0527 8.45775 21.8453 8.45775L3.39429 8.45775L8.31799 13.3799C8.46488 13.5268 8.5474 13.726 8.5474 13.9337C8.5474 14.1415 8.46488 14.3407 8.31799 14.4876C8.1711 14.6345 7.97187 14.717 7.76413 14.717C7.55639 14.717 7.35716 14.6345 7.21027 14.4876L0.951994 8.22932C0.879142 8.15665 0.821343 8.07032 0.781906 7.97529C0.742468 7.88025 0.722168 7.77836 0.722168 7.67546C0.722168 7.57256 0.742468 7.47068 0.781905 7.37564C0.821343 7.2806 0.879142 7.19427 0.951994 7.1216L7.21027 0.863326C7.28301 0.790592 7.36935 0.732897 7.46438 0.693534C7.55941 0.654171 7.66127 0.633911 7.76413 0.633911C7.97187 0.633911 8.17109 0.716434 8.31799 0.863326C8.46488 1.01022 8.5474 1.20945 8.5474 1.41718C8.5474 1.62492 8.46488 1.82415 8.31799 1.97104L3.39429 6.89318L21.8453 6.89318C22.0527 6.89318 22.2517 6.9756 22.3984 7.1223C22.5451 7.26901 22.6275 7.46799 22.6275 7.67546Z" fill="#171717"/>
</svg>
