<svg width="23" height="15" viewBox="0 0 23 15" fill="none" xmlns="http://www.w3.org/2000/svg">
<path fill-rule="evenodd" clip-rule="evenodd" d="M0.723411 7.67546C0.723411 7.88294 0.80583 8.08191 0.952537 8.22862C1.09924 8.37533 1.29822 8.45775 1.5057 8.45775L19.9567 8.45775L15.033 13.3799C14.8861 13.5268 14.8035 13.726 14.8035 13.9337C14.8035 14.1415 14.8861 14.3407 15.033 14.4876C15.1799 14.6345 15.3791 14.717 15.5868 14.717C15.7946 14.717 15.9938 14.6345 16.1407 14.4876L22.399 8.22932C22.4718 8.15665 22.5296 8.07032 22.569 7.97529C22.6085 7.88025 22.6288 7.77836 22.6288 7.67546C22.6288 7.57256 22.6085 7.47068 22.569 7.37564C22.5296 7.2806 22.4718 7.19427 22.399 7.1216L16.1407 0.863326C16.0679 0.790592 15.9816 0.732897 15.8866 0.693534C15.7915 0.654171 15.6897 0.633911 15.5868 0.633911C15.3791 0.633911 15.1799 0.716434 15.033 0.863326C14.8861 1.01022 14.8035 1.20945 14.8035 1.41718C14.8035 1.62492 14.8861 1.82415 15.033 1.97104L19.9567 6.89318L1.5057 6.89318C1.29822 6.89318 1.09924 6.9756 0.952537 7.1223C0.80583 7.26901 0.723411 7.46799 0.723411 7.67546Z" fill="white"/>
</svg>
