<svg width="33" height="24" viewBox="0 0 33 24" fill="none" xmlns="http://www.w3.org/2000/svg">
<path d="M7.97775 9.42241C7.63086 9.42241 7.29797 9.4753 6.96664 9.52352C7.07397 9.16263 7.18442 8.79552 7.36175 8.46574C7.53909 7.98663 7.81597 7.5713 8.09131 7.15285C8.32153 6.70019 8.72753 6.39374 9.0262 6.00641C9.33886 5.62996 9.76509 5.37952 10.1026 5.06685C10.434 4.74019 10.868 4.57685 11.2133 4.34663C11.5742 4.13974 11.8884 3.91108 12.2244 3.80219L13.0629 3.45685L13.8002 3.15041L13.0458 0.135742L12.1171 0.359742C11.82 0.434408 11.4575 0.521519 11.0453 0.625742C10.6238 0.703519 10.1742 0.916631 9.67331 1.11108C9.17864 1.33196 8.6062 1.4813 8.0742 1.83596C7.53908 2.17508 6.92153 2.45819 6.37709 2.91241C5.84975 3.38063 5.21353 3.78663 4.74375 4.38241C4.23042 4.9393 3.72331 5.52419 3.32975 6.18996C2.87397 6.82463 2.56442 7.52152 2.23775 8.21063C1.9422 8.89974 1.7042 9.60441 1.50975 10.2889C1.14108 11.6609 0.976196 12.9644 0.912418 14.0797C0.859529 15.1966 0.89064 16.1253 0.955974 16.7973C0.979307 17.1146 1.02286 17.4226 1.05397 17.6357L1.09286 17.8971L1.13331 17.8877C1.40998 19.1801 2.04689 20.3678 2.97036 21.3134C3.89383 22.2589 5.06613 22.9237 6.35163 23.2308C7.63714 23.5379 8.98333 23.4748 10.2345 23.0488C11.4856 22.6228 12.5906 21.8513 13.4216 20.8235C14.2526 19.7957 14.7756 18.5537 14.9302 17.2411C15.0848 15.9285 14.8646 14.5989 14.2951 13.4062C13.7256 12.2135 12.8301 11.2064 11.7121 10.5014C10.5941 9.79642 9.29944 9.42232 7.97775 9.42241ZM25.0889 9.42241C24.742 9.42241 24.4091 9.4753 24.0778 9.52352C24.1851 9.16263 24.2955 8.79552 24.4729 8.46574C24.6502 7.98663 24.9271 7.5713 25.2024 7.15285C25.4326 6.70019 25.8386 6.39374 26.1373 6.00641C26.45 5.62996 26.8762 5.37952 27.2138 5.06685C27.5451 4.74019 27.9791 4.57685 28.3244 4.34663C28.6853 4.13974 28.9995 3.91108 29.3355 3.80219L30.174 3.45685L30.9113 3.15041L30.1569 0.135742L29.2282 0.359742C28.9311 0.434408 28.5686 0.521519 28.1564 0.625742C27.7349 0.703519 27.2853 0.916631 26.7844 1.11108C26.2913 1.33352 25.7173 1.4813 25.1853 1.83752C24.6502 2.17663 24.0326 2.45974 23.4882 2.91396C22.9609 3.38219 22.3246 3.78819 21.8549 4.38241C21.3415 4.9393 20.8344 5.52419 20.4409 6.18996C19.9851 6.82463 19.6755 7.52152 19.3489 8.21063C19.0533 8.89974 18.8153 9.60441 18.6209 10.2889C18.2522 11.6609 18.0873 12.9644 18.0235 14.0797C17.9706 15.1966 18.0018 16.1253 18.0671 16.7973C18.0904 17.1146 18.134 17.4226 18.1651 17.6357L18.204 17.8971L18.2444 17.8877C18.5211 19.1801 19.158 20.3678 20.0815 21.3134C21.0049 22.2589 22.1772 22.9237 23.4627 23.2308C24.7483 23.5379 26.0944 23.4748 27.3456 23.0488C28.5967 22.6228 29.7017 21.8513 30.5327 20.8235C31.3637 19.7957 31.8867 18.5537 32.0413 17.2411C32.1959 15.9285 31.9757 14.5989 31.4062 13.4062C30.8367 12.2135 29.9412 11.2064 28.8232 10.5014C27.7053 9.79642 26.4105 9.42232 25.0889 9.42241Z" fill="#F26440"/>
</svg>
